<svg width="33" height="33" viewBox="0 0 33 33" fill="none" xmlns="http://www.w3.org/2000/svg">
<g clip-path="url(#clip0_1_1554)">
<path d="M2.10559 16.8103C2.10559 16.8103 7.43959 6.14526 16.7726 6.14526C26.1056 6.14526 31.4396 16.8123 31.4396 16.8123C31.4396 16.8123 26.1056 27.4773 16.7726 27.4773C7.43959 27.4773 2.10559 16.8103 2.10559 16.8103Z" stroke="#232429" stroke-width="2.667" stroke-linecap="round" stroke-linejoin="round"/>
<path d="M16.7726 20.8103C17.8334 20.8103 18.8509 20.3889 19.601 19.6387C20.3512 18.8886 20.7726 17.8712 20.7726 16.8103C20.7726 15.7494 20.3512 14.732 19.601 13.9819C18.8509 13.2317 17.8334 12.8103 16.7726 12.8103C15.7117 12.8103 14.6943 13.2317 13.9442 13.9819C13.194 14.732 12.7726 15.7494 12.7726 16.8103C12.7726 17.8712 13.194 18.8886 13.9442 19.6387C14.6943 20.3889 15.7117 20.8103 16.7726 20.8103Z" stroke="#232429" stroke-width="2.667" stroke-linecap="round" stroke-linejoin="round"/>
</g>
<defs>
<clipPath id="clip0_1_1554">
<rect width="32" height="32" fill="white" transform="translate(0.772583 0.810303)"/>
</clipPath>
</defs>
</svg>
