<svg width="57" height="57" viewBox="0 0 57 57" fill="none" xmlns="http://www.w3.org/2000/svg">
<g id="svg1198102987_317" clip-path="url(#clip0_1_1663)">
<path id="Vector" d="M56.7726 28.1504C56.7726 12.6864 44.2366 0.150391 28.7726 0.150391C13.3086 0.150391 0.772583 12.6864 0.772583 28.1504C0.772583 43.6144 13.3086 56.1504 28.7726 56.1504C44.2366 56.1504 56.7726 43.6144 56.7726 28.1504Z" fill="#ECECEF"/>
<path id="Vector_2" d="M28.7726 24.1504V32.1504M24.7726 28.1504H32.7726M28.7726 38.1504C34.2956 38.1504 38.7726 33.6734 38.7726 28.1504C38.7726 22.6274 34.2956 18.1504 28.7726 18.1504C23.2496 18.1504 18.7726 22.6274 18.7726 28.1504C18.7726 33.6734 23.2496 38.1504 28.7726 38.1504Z" stroke="#232429" stroke-width="2" stroke-linecap="round" stroke-linejoin="round"/>
</g>
<defs>
<clipPath id="clip0_1_1663">
<rect width="56" height="56" fill="white" transform="translate(0.772583 0.150391)"/>
</clipPath>
</defs>
</svg>
