<svg width="58" height="57" viewBox="0 0 58 57" fill="none" xmlns="http://www.w3.org/2000/svg">
<g id="svg-1553246269_445" clip-path="url(#clip0_1_1695)">
<path id="Vector" d="M57.0996 28.1504C57.0996 12.6864 44.5636 0.150391 29.0996 0.150391C13.6356 0.150391 1.09961 12.6864 1.09961 28.1504C1.09961 43.6144 13.6356 56.1504 29.0996 56.1504C44.5636 56.1504 57.0996 43.6144 57.0996 28.1504Z" fill="#ECECEF"/>
<g id="Clip path group">
<mask id="mask0_1_1695" style="mask-type:luminance" maskUnits="userSpaceOnUse" x="17" y="16" width="25" height="25">
<g id="svg-1553246269_445_a">
<path id="Vector_2" d="M17.0996 16.1504H41.0996V40.1504H17.0996V16.1504Z" fill="white"/>
</g>
</mask>
<g mask="url(#mask0_1_1695)">
<g id="Group">
<path id="Vector_3" d="M21.0996 37.1504V30.1504M21.0996 26.1504V19.1504M29.0996 37.1504V28.1504M29.0996 24.1504V19.1504M37.0996 37.1504V32.1504M37.0996 28.1504V19.1504M18.0996 30.1504H24.0996M26.0996 24.1504H32.0996M34.0996 32.1504H40.0996" stroke="#232429" stroke-width="2" stroke-linecap="round" stroke-linejoin="round"/>
</g>
</g>
</g>
</g>
<defs>
<clipPath id="clip0_1_1695">
<rect width="57" height="56" fill="white" transform="translate(0.432617 0.150391)"/>
</clipPath>
</defs>
</svg>
