<svg width="58" height="57" viewBox="0 0 58 57" fill="none" xmlns="http://www.w3.org/2000/svg">
<g id="svg2118253335_474" clip-path="url(#clip0_1_1726)">
<path id="Vector" d="M56.4355 28.1504C56.4355 12.6864 43.8995 0.150391 28.4355 0.150391C12.9716 0.150391 0.435547 12.6864 0.435547 28.1504C0.435547 43.6144 12.9716 56.1504 28.4355 56.1504C43.8995 56.1504 56.4355 43.6144 56.4355 28.1504Z" fill="#ECECEF"/>
<g id="Clip path group">
<mask id="mask0_1_1726" style="mask-type:luminance" maskUnits="userSpaceOnUse" x="16" y="16" width="25" height="25">
<g id="svg2118253335_474_a">
<path id="Vector_2" d="M16.4355 16.1504H40.4355V40.1504H16.4355V16.1504Z" fill="white"/>
</g>
</mask>
<g mask="url(#mask0_1_1726)">
<g id="Group">
<path id="Vector_3" d="M17.4355 28.1504C17.4355 28.1504 21.4355 20.1504 28.4355 20.1504C35.4355 20.1504 39.4355 28.1504 39.4355 28.1504C39.4355 28.1504 35.4355 36.1504 28.4355 36.1504C21.4355 36.1504 17.4355 28.1504 17.4355 28.1504Z" stroke="#232429" stroke-width="2" stroke-linecap="round" stroke-linejoin="round"/>
<path id="Vector_4" d="M28.4355 31.1504C29.2312 31.1504 29.9943 30.8343 30.5569 30.2717C31.1195 29.7091 31.4355 28.946 31.4355 28.1504C31.4355 27.3547 31.1195 26.5917 30.5569 26.0291C29.9943 25.4665 29.2312 25.1504 28.4355 25.1504C27.6399 25.1504 26.8768 25.4665 26.3142 26.0291C25.7516 26.5917 25.4355 27.3547 25.4355 28.1504C25.4355 28.946 25.7516 29.7091 26.3142 30.2717C26.8768 30.8343 27.6399 31.1504 28.4355 31.1504Z" stroke="#232429" stroke-width="2" stroke-linecap="round" stroke-linejoin="round"/>
</g>
</g>
</g>
</g>
<defs>
<clipPath id="clip0_1_1726">
<rect width="57" height="56" fill="white" transform="translate(0.102539 0.150391)"/>
</clipPath>
</defs>
</svg>
