<svg width="58" height="57" viewBox="0 0 58 57" fill="none" xmlns="http://www.w3.org/2000/svg">
<g id="svg365486362_499" clip-path="url(#clip0_1_1677)">
<path id="Vector" d="M56.4355 28.1504C56.4355 12.6864 43.8995 0.150391 28.4355 0.150391C12.9716 0.150391 0.435547 12.6864 0.435547 28.1504C0.435547 43.6144 12.9716 56.1504 28.4355 56.1504C43.8995 56.1504 56.4355 43.6144 56.4355 28.1504Z" fill="#ECECEF"/>
<g id="Clip path group">
<mask id="mask0_1_1677" style="mask-type:luminance" maskUnits="userSpaceOnUse" x="16" y="16" width="25" height="25">
<g id="svg365486362_499_a">
<path id="Vector_2" d="M16.4355 16.1504H40.4355V40.1504H16.4355V16.1504Z" fill="white"/>
</g>
</mask>
<g mask="url(#mask0_1_1677)">
<g id="Group">
<path id="Vector_3" d="M32.4355 32.1504L28.4355 28.1504M28.4355 28.1504L24.4355 32.1504M28.4355 28.1504V37.1504" stroke="#232429" stroke-width="2" stroke-linecap="round" stroke-linejoin="round"/>
<path id="Vector_4" d="M36.8255 34.5404C37.8008 34.0086 38.5713 33.1673 39.0154 32.149C39.4594 31.1307 39.5517 29.9936 39.2777 28.9171C39.0037 27.8405 38.379 26.8859 37.5022 26.2038C36.6254 25.5218 35.5464 25.1511 34.4355 25.1504H33.1755C32.8728 23.9796 32.3087 22.8927 31.5255 21.9714C30.7422 21.05 29.7604 20.3182 28.6536 19.831C27.5469 19.3437 26.3441 19.1137 25.1356 19.1583C23.9272 19.2028 22.7446 19.5207 21.6767 20.088C20.6088 20.6554 19.6834 21.4575 18.9701 22.434C18.2568 23.4104 17.7742 24.5359 17.5585 25.7258C17.3428 26.9156 17.3996 28.1389 17.7247 29.3036C18.0498 30.4684 18.6347 31.5442 19.4355 32.4504" stroke="#232429" stroke-width="2" stroke-linecap="round" stroke-linejoin="round"/>
<path id="Vector_5" d="M32.4355 32.1504L28.4355 28.1504L24.4355 32.1504" stroke="#232429" stroke-width="2" stroke-linecap="round" stroke-linejoin="round"/>
</g>
</g>
</g>
</g>
<defs>
<clipPath id="clip0_1_1677">
<rect width="57" height="56" fill="white" transform="translate(0.102539 0.150391)"/>
</clipPath>
</defs>
</svg>
