<svg width="25" height="25" viewBox="0 0 25 25" fill="none" xmlns="http://www.w3.org/2000/svg">
<g id="SVG">
<path id="Vector" d="M19.7725 3.15039C20.3029 3.15039 20.8116 3.3611 21.1867 3.73618C21.5617 4.11125 21.7725 4.61996 21.7725 5.15039V19.1504C21.7725 19.6808 21.5617 20.1895 21.1867 20.5646C20.8116 20.9397 20.3029 21.1504 19.7725 21.1504H5.77246C5.24203 21.1504 4.73332 20.9397 4.35825 20.5646C3.98317 20.1895 3.77246 19.6808 3.77246 19.1504V5.15039C3.77246 4.61996 3.98317 4.11125 4.35825 3.73618C4.73332 3.3611 5.24203 3.15039 5.77246 3.15039H19.7725ZM19.2725 18.6504V13.3504C19.2725 12.4858 18.929 11.6566 18.3176 11.0452C17.7063 10.4339 16.8771 10.0904 16.0125 10.0904C15.1625 10.0904 14.1725 10.6104 13.6925 11.3904V10.2804H10.9025V18.6504H13.6925V13.7204C13.6925 12.9504 14.3125 12.3204 15.0825 12.3204C15.4538 12.3204 15.8099 12.4679 16.0724 12.7304C16.335 12.993 16.4825 13.3491 16.4825 13.7204V18.6504H19.2725ZM7.65246 8.71039C8.09802 8.71039 8.52534 8.53339 8.8404 8.21833C9.15546 7.90327 9.33246 7.47595 9.33246 7.03039C9.33246 6.10039 8.58246 5.34039 7.65246 5.34039C7.20425 5.34039 6.77439 5.51844 6.45745 5.83538C6.14051 6.15232 5.96246 6.58217 5.96246 7.03039C5.96246 7.96039 6.72246 8.71039 7.65246 8.71039ZM9.04246 18.6504V10.2804H6.27246V18.6504H9.04246Z" fill="#232429"/>
</g>
</svg>
