<svg width="118" height="41" viewBox="0 0 118 41" fill="none" xmlns="http://www.w3.org/2000/svg">
<g clip-path="url(#clip0_1_1784)">
<g clip-path="url(#clip1_1_1784)">
<path d="M53.2026 17.7333V3.66125H55.4186L61.8386 12.4813C61.9216 12.5643 62.0106 12.6813 62.1056 12.8313C62.2156 12.9813 62.3176 13.1313 62.4136 13.2813C62.5096 13.4323 62.5776 13.5553 62.6186 13.6513H62.7216V3.66225H64.9366V17.7333H62.8036L56.3006 8.81026L55.8906 8.19526C55.7651 7.99824 55.6418 7.7999 55.5206 7.60025H55.4186V17.7333H53.2026ZM68.2676 17.7333V3.66125H79.1805V5.63125H70.5646V9.54825H78.2775V11.5183H70.5646V15.7643H79.3036V17.7343L68.2676 17.7333ZM80.5506 17.7333L86.0686 3.66125H89.0026L94.5406 17.7333H92.0796L90.8276 14.4723H84.1626L82.9116 17.7333H80.5506ZM84.9006 12.5233H90.0686L88.4906 8.40026C88.4319 8.2282 88.3702 8.05718 88.3055 7.88725L88.0396 7.16926C87.9576 6.90926 87.8686 6.64925 87.7726 6.38925C87.699 6.14272 87.6236 5.89671 87.5466 5.65125H87.4236C87.2138 6.30633 86.988 6.95619 86.7466 7.60025C86.6376 7.92825 86.5415 8.19526 86.4595 8.40026L84.9006 12.5233ZM96.3526 17.7333V3.66125H103.758C104.756 3.66125 105.584 3.83925 106.24 4.19525C106.875 4.52946 107.391 5.05249 107.717 5.69225C108.045 6.32225 108.209 7.06026 108.209 7.90726C108.209 8.85126 107.997 9.67226 107.573 10.3693C107.153 11.0633 106.519 11.6028 105.768 11.9073L108.702 17.7333H106.199L103.532 12.2973H98.6496V17.7333H96.3526ZM98.6496 10.3693H103.573C104.312 10.3693 104.879 10.1503 105.276 9.71325C105.686 9.27525 105.891 8.66625 105.891 7.88725C105.891 7.40825 105.802 7.00525 105.625 6.67725C105.453 6.34163 105.18 6.06866 104.845 5.89725C104.503 5.71925 104.079 5.63125 103.573 5.63125H98.6496V10.3693ZM56.6496 38.2463V26.1433H51.9926V24.1743H63.6446V26.1443H58.9466V38.2463H56.6496ZM62.4626 38.2463L67.9796 24.1743H70.9136L76.4516 38.2463H73.9906L72.7386 34.9843H66.0726L64.8216 38.2463H62.4626ZM66.8106 33.0363H71.9806L70.4006 28.9133C70.3418 28.7412 70.2802 28.5702 70.2156 28.4003L69.9496 27.6823C69.8676 27.4223 69.7786 27.1623 69.6826 26.9023C69.6006 26.6293 69.5256 26.3823 69.4576 26.1643H69.3335C69.1235 26.8192 68.8977 27.4691 68.6566 28.1133C68.5476 28.4413 68.4516 28.7073 68.3696 28.9133L66.8106 33.0363ZM83.4735 38.4923C82.7283 38.4945 81.9852 38.412 81.2586 38.2463C80.591 38.1128 79.9522 37.8626 79.3716 37.5073C78.8421 37.1703 78.3992 36.7137 78.0786 36.1743C77.7646 35.6273 77.6076 34.9773 77.6076 34.2253V34.0003C77.6206 33.9183 77.6276 33.8503 77.6276 33.7953H79.9246C79.9246 33.8353 79.9186 33.8973 79.9046 33.9793V34.1843C79.9046 34.6903 80.0546 35.1213 80.3556 35.4773C80.6566 35.8323 81.0736 36.0993 81.6076 36.2773C82.1546 36.4543 82.7765 36.5433 83.4735 36.5433C83.8565 36.5433 84.2256 36.5233 84.5816 36.4823C84.9366 36.4273 85.2586 36.3523 85.5456 36.2563C85.8456 36.1463 86.1056 36.0163 86.3256 35.8663C86.5345 35.7129 86.709 35.5173 86.8376 35.2923C86.9606 35.0733 87.0226 34.8203 87.0226 34.5333C87.0226 34.0953 86.8926 33.7333 86.6326 33.4463C86.3866 33.1593 86.0446 32.9193 85.6076 32.7283C85.1358 32.5199 84.6487 32.3484 84.1506 32.2153C83.6175 32.0653 83.0636 31.9153 82.4886 31.7643C81.9195 31.6151 81.3584 31.4369 80.8076 31.2303C80.297 31.0369 79.8085 30.7895 79.3506 30.4923C78.9339 30.1998 78.5841 29.8222 78.3246 29.3843C78.0786 28.9343 77.9556 28.3863 77.9556 27.7443C77.9556 27.1283 78.0856 26.5813 78.3456 26.1023C78.6056 25.6243 78.9815 25.2273 79.4735 24.9123C79.9655 24.5843 80.5535 24.3383 81.2375 24.1743C81.9215 24.0103 82.6945 23.9283 83.5555 23.9283C84.2945 23.9283 84.9916 24.0103 85.6486 24.1743C86.3046 24.3243 86.8786 24.5643 87.3716 24.8923C87.8519 25.2078 88.2464 25.6376 88.5196 26.1433C88.8066 26.6493 88.9506 27.2513 88.9506 27.9493V28.1953H86.6736V27.9283C86.6736 27.4903 86.5436 27.1213 86.2836 26.8203C86.0236 26.5203 85.6616 26.2873 85.1966 26.1233C84.7316 25.9593 84.1916 25.8773 83.5766 25.8773C82.8516 25.8773 82.2425 25.9523 81.7505 26.1023C81.2585 26.2393 80.8826 26.4373 80.6226 26.6973C80.3766 26.9433 80.2526 27.2443 80.2526 27.6003C80.2526 27.9963 80.3826 28.3253 80.6426 28.5843C80.9026 28.8303 81.2446 29.0433 81.6686 29.2203C82.1066 29.3983 82.5915 29.5623 83.1245 29.7133C83.6716 29.8493 84.2256 30.0003 84.7866 30.1633C85.3606 30.3143 85.9146 30.4933 86.4486 30.6973C86.9647 30.8866 87.4541 31.1421 87.9046 31.4573C88.3426 31.7573 88.6906 32.1333 88.9506 32.5843C89.2106 33.0223 89.3406 33.5623 89.3406 34.2043C89.3406 35.2173 89.0876 36.0443 88.5806 36.6873C88.0756 37.3163 87.3776 37.7743 86.4886 38.0613C85.6136 38.3493 84.6085 38.4923 83.4735 38.4923ZM92.0056 38.2463V24.1743H94.3026V31.1893L101.011 24.1743H103.842L98.4256 29.8363L103.985 38.2463H101.278L96.8676 31.4563L94.3026 33.8163V38.2463H92.0056ZM111.098 38.4923C110.352 38.4945 109.609 38.412 108.883 38.2463C108.215 38.1128 107.576 37.8626 106.996 37.5073C106.466 37.1701 106.023 36.7135 105.703 36.1743C105.389 35.6273 105.232 34.9773 105.232 34.2253V34.0003C105.245 33.9183 105.252 33.8503 105.252 33.7953H107.55C107.55 33.8353 107.543 33.8973 107.529 33.9793V34.1843C107.529 34.6903 107.68 35.1213 107.98 35.4773C108.281 35.8323 108.698 36.0993 109.232 36.2773C109.779 36.4543 110.401 36.5433 111.098 36.5433C111.481 36.5433 111.85 36.5233 112.206 36.4823C112.533 36.4342 112.855 36.3586 113.17 36.2563C113.471 36.1463 113.731 36.0163 113.95 35.8663C114.168 35.7023 114.339 35.5113 114.462 35.2923C114.586 35.0733 114.647 34.8203 114.647 34.5333C114.647 34.0953 114.517 33.7333 114.257 33.4463C114.011 33.1593 113.669 32.9193 113.232 32.7283C112.808 32.5373 112.322 32.3663 111.775 32.2153C111.242 32.0653 110.688 31.9153 110.114 31.7643C109.544 31.6153 108.983 31.437 108.432 31.2303C107.921 31.037 107.432 30.7895 106.975 30.4923C106.551 30.1923 106.209 29.8223 105.95 29.3843C105.703 28.9343 105.58 28.3863 105.58 27.7443C105.58 27.1283 105.71 26.5813 105.97 26.1023C106.23 25.6243 106.606 25.2273 107.098 24.9123C107.591 24.5843 108.179 24.3383 108.862 24.1743C109.546 24.0103 110.319 23.9283 111.18 23.9283C111.919 23.9283 112.616 24.0103 113.273 24.1743C113.929 24.3243 114.503 24.5643 114.996 24.8923C115.488 25.2203 115.871 25.6373 116.144 26.1433C116.432 26.6493 116.575 27.2513 116.575 27.9493V28.1953H114.298V27.9283C114.298 27.4903 114.168 27.1213 113.909 26.8203C113.649 26.5203 113.286 26.2873 112.821 26.1233C112.356 25.9593 111.816 25.8773 111.201 25.8773C110.476 25.8773 109.868 25.9523 109.375 26.1023C108.883 26.2393 108.507 26.4373 108.247 26.6973C108.127 26.8146 108.032 26.9552 107.969 27.1105C107.905 27.2659 107.874 27.4325 107.878 27.6003C107.878 27.9963 108.008 28.3253 108.268 28.5843C108.527 28.8303 108.869 29.0433 109.293 29.2203C109.731 29.3983 110.216 29.5623 110.75 29.7133C111.297 29.8493 111.85 30.0003 112.411 30.1633C112.986 30.3143 113.539 30.4933 114.073 30.6973C114.589 30.8866 115.078 31.142 115.529 31.4573C115.967 31.7573 116.315 32.1333 116.575 32.5843C116.835 33.0223 116.965 33.5623 116.965 34.2043C116.965 35.2173 116.712 36.0443 116.206 36.6873C115.7 37.3163 115.003 37.7743 114.114 38.0613C113.238 38.3493 112.233 38.4923 111.098 38.4923Z" fill="white"/>
<path fill-rule="evenodd" clip-rule="evenodd" d="M8.8406 22.7783C8.17787 22.8067 7.51516 22.702 6.8936 22.4703C6.26967 22.237 5.69828 21.8821 5.2126 21.4263C4.72355 20.9672 4.32913 20.4169 4.0516 19.8063C3.63201 18.8839 3.49008 17.8592 3.64316 16.8575C3.79623 15.8558 4.23768 14.9203 4.9136 14.1653C5.36028 13.6698 5.90068 13.2677 6.5036 12.9823C7.10323 12.6982 7.75368 12.537 8.4166 12.5083C12.1706 12.3483 16.9536 14.2323 21.2116 16.3853C21.2314 16.3953 21.2534 16.4004 21.2756 16.4003H21.3366C21.4437 16.3927 21.5451 16.3494 21.6246 16.2773C21.7059 16.204 21.7607 16.106 21.7806 15.9984C21.8005 15.8909 21.7843 15.7797 21.7346 15.6823C21.6866 15.5855 21.6078 15.5074 21.5106 15.4603H21.5086C16.5066 13.1173 10.7826 11.0473 6.3456 11.3963C5.55422 11.4586 4.78338 11.679 4.0786 12.0443C3.36925 12.4113 2.7395 12.9149 2.2256 13.5263C1.70875 14.1427 1.31711 14.8539 1.0726 15.6203C0.575352 17.1717 0.702338 18.8559 1.4266 20.3153C1.7866 21.0353 2.2806 21.6773 2.8826 22.2023C3.48217 22.7268 4.18002 23.1269 4.9356 23.3793C5.6886 23.6293 6.4826 23.7273 7.2736 23.6653C8.04336 23.5948 8.78996 23.3696 9.4706 23.0033C9.50094 22.9864 9.52451 22.9596 9.53727 22.9273C9.55003 22.895 9.55121 22.8593 9.5406 22.8263C9.53061 22.793 9.50887 22.7645 9.47943 22.7461C9.44999 22.7277 9.41486 22.7207 9.3806 22.7263C9.2016 22.7563 9.0206 22.7733 8.8396 22.7793L8.8406 22.7783Z" fill="white"/>
<path d="M32.9096 29.4133H32.9076C32.2471 29.0114 31.5126 28.7461 30.7476 28.6333C30.7136 28.6288 30.6791 28.6366 30.6503 28.6553C30.6215 28.674 30.6003 28.7024 30.5906 28.7353C30.5804 28.7685 30.582 28.8041 30.5952 28.8362C30.6083 28.8683 30.6321 28.8948 30.6626 28.9113C30.8106 28.9883 30.9546 29.0713 31.0936 29.1633C32.2123 29.9257 32.9852 31.0986 33.2446 32.4273C33.5087 33.7608 33.2417 35.1447 32.5006 36.2843C32.138 36.8435 31.6682 37.3253 31.1182 37.7017C30.5682 38.0781 29.9491 38.3417 29.2966 38.4773C28.6466 38.6103 27.9765 38.6118 27.3259 38.4816C26.6753 38.3514 26.0574 38.0922 25.5086 37.7193C22.3786 35.6023 19.5936 31.2093 17.3816 26.9143C17.369 26.8903 17.35 26.8702 17.3266 26.8563C17.2348 26.8014 17.1271 26.779 17.0209 26.7928C16.9148 26.8066 16.8164 26.8557 16.7416 26.9323C16.6649 27.0101 16.6158 27.111 16.6021 27.2195C16.5884 27.3279 16.6107 27.4378 16.6656 27.5323C19.3656 32.4163 22.8116 37.5253 26.5876 39.8993C27.2597 40.3223 28.01 40.6059 28.7938 40.7334C29.5776 40.8608 30.3791 40.8295 31.1506 40.6413C31.9238 40.4529 32.6516 40.1123 33.2916 39.6393C33.9358 39.1633 34.4801 38.5653 34.8936 37.8793C35.7315 36.4825 35.993 34.8145 35.6226 33.2283C35.439 32.4436 35.1045 31.7022 34.6376 31.0453C34.1745 30.3931 33.5873 29.8385 32.9096 29.4133Z" fill="white"/>
<path d="M39.8466 13.6623C39.3377 13.0503 38.7121 12.5458 38.0063 12.1781C37.3006 11.8103 36.5286 11.5867 35.7356 11.5203C34.9439 11.4564 34.1475 11.5515 33.3931 11.7998C32.6387 12.0481 31.9415 12.4447 31.3426 12.9663L31.3406 12.9683C30.7833 13.4636 30.3255 14.0606 29.9916 14.7273C29.9761 14.7581 29.9717 14.7934 29.9791 14.8271C29.9866 14.8608 30.0055 14.8908 30.0326 14.9123C30.0593 14.9334 30.0929 14.9441 30.1269 14.9422C30.161 14.9404 30.1932 14.9262 30.2176 14.9023C30.3176 14.8053 30.4196 14.7123 30.5276 14.6243L30.5286 14.6233C31.0449 14.1946 31.642 13.8739 32.2846 13.6803C32.9252 13.4869 33.5984 13.4253 34.2636 13.4992C34.9287 13.5731 35.572 13.781 36.1546 14.1103C36.7407 14.441 37.2554 14.8849 37.6686 15.4163C38.0826 15.9493 38.3896 16.5613 38.5706 17.2163C38.9352 18.5388 38.7657 19.9515 38.0986 21.1503C37.7696 21.7399 37.3271 22.2586 36.7966 22.6763H36.7946C33.8606 25.0433 28.9406 26.3823 24.2556 27.1943C24.2295 27.1989 24.2053 27.2106 24.1856 27.2283L24.1496 27.2613C24.0655 27.3313 24.0071 27.4272 23.9836 27.534C23.9601 27.6408 23.9727 27.7524 24.0196 27.8513C24.0666 27.9513 24.1446 28.0323 24.2406 28.0813C24.3366 28.1313 24.4466 28.1463 24.5526 28.1253C29.9456 27.0193 35.7756 25.2703 39.1626 22.3303C40.3858 21.2633 41.141 19.7586 41.2656 18.1403C41.395 16.5194 40.8864 14.9123 39.8466 13.6623Z" fill="white"/>
<path d="M25.3646 2.67628C25.9226 3.26228 26.3606 3.95628 26.6536 4.71628C28.3496 8.90628 28.1796 15.0963 27.5466 20.6663C27.5342 20.7754 27.486 20.8774 27.4096 20.9563C27.3531 21.0141 27.2828 21.0567 27.2055 21.0801C27.1281 21.1035 27.046 21.107 26.9669 21.0903C26.8878 21.0735 26.8142 21.0371 26.753 20.9843C26.6917 20.9315 26.6448 20.8641 26.6166 20.7883L26.6156 20.7863L26.6136 20.7833L26.6096 20.7753C26.6008 20.7583 26.5928 20.741 26.5856 20.7233C26.5753 20.6941 26.5716 20.6631 26.5746 20.6323C27.2596 15.8533 27.5336 10.6643 26.2326 7.09228L26.2316 7.09028C26.0097 6.44891 25.6634 5.85763 25.2126 5.35028C24.7648 4.84658 24.2208 4.43755 23.6126 4.14728C22.7 3.71166 21.6761 3.56481 20.6778 3.72634C19.6796 3.88787 18.7543 4.35009 18.0256 5.05128C17.5359 5.51981 17.1437 6.08057 16.8716 6.70128C16.3181 7.96 16.2836 9.38628 16.7756 10.6703V10.6723C16.8276 10.8123 16.8866 10.9483 16.9516 11.0823C16.9669 11.1137 16.9708 11.1494 16.9626 11.1834C16.9544 11.2173 16.9346 11.2474 16.9066 11.2683C16.8792 11.2888 16.8453 11.2986 16.8112 11.2958C16.7772 11.2931 16.7453 11.2779 16.7216 11.2533C16.2018 10.7197 15.787 10.0931 15.4986 9.40628C14.8533 7.88971 14.8332 6.17963 15.4426 4.64828C15.7425 3.89331 16.1887 3.20511 16.7556 2.62328C17.3184 2.0458 17.9913 1.58708 18.7346 1.27428C19.4742 0.963394 20.2692 0.805677 21.0716 0.810661C21.8739 0.815646 22.6669 0.983228 23.4026 1.30328C24.1396 1.62328 24.8066 2.09028 25.3646 2.67628ZM18.0826 33.6303C18.0766 33.5963 18.0588 33.5656 18.0322 33.5436C18.0056 33.5216 17.9721 33.5098 17.9376 33.5103C17.9031 33.5117 17.8703 33.5254 17.845 33.5488C17.8197 33.5723 17.8036 33.604 17.7996 33.6383C17.7757 33.8313 17.7386 34.0224 17.6886 34.2103C17.3243 35.5044 16.4659 36.6034 15.2986 37.2703C14.7255 37.5964 14.0931 37.8051 13.4384 37.8841C12.7837 37.963 12.1198 37.9108 11.4856 37.7303C10.1981 37.3602 9.10985 36.4946 8.45959 35.3233C7.80115 34.1425 7.62622 32.7524 7.97159 31.4453C8.98259 27.7503 12.2356 23.6853 15.5716 20.2153C15.5899 20.196 15.6026 20.1722 15.6086 20.1463C15.6331 20.0402 15.6226 19.9289 15.5786 19.8293C15.5352 19.7302 15.4604 19.6483 15.3656 19.5963C15.2717 19.5449 15.1631 19.5268 15.0577 19.545C14.9522 19.5631 14.8559 19.6165 14.7846 19.6963C11.0596 23.8243 7.35159 28.7293 6.30459 33.1383C5.92958 34.7223 6.18603 36.3901 7.01959 37.7883C7.43137 38.4748 7.97356 39.0741 8.61559 39.5523C9.25559 40.0273 9.98159 40.3693 10.7516 40.5593C11.522 40.7494 12.3227 40.7827 13.1062 40.6573C13.8897 40.5319 14.64 40.2503 15.3126 39.8293C15.9908 39.4067 16.579 38.8545 17.0436 38.2043C17.5117 37.5497 17.8479 36.8103 18.0336 36.0273V36.0253C18.2101 35.2383 18.2271 34.4239 18.0836 33.6303H18.0826Z" fill="white"/>
</g>
</g>
<defs>
<clipPath id="clip0_1_1784">
<rect width="117" height="40" fill="white" transform="translate(0.772583 0.810303)"/>
</clipPath>
<clipPath id="clip1_1_1784">
<rect width="117" height="40" fill="white" transform="translate(0.772583 0.810303)"/>
</clipPath>
</defs>
</svg>
