<svg width="58" height="56" viewBox="0 0 58 56" fill="none" xmlns="http://www.w3.org/2000/svg">
<g id="svg-308434764_669" clip-path="url(#clip0_1_1901)">
<path id="Vector" d="M57.3269 28C57.3269 12.536 44.7909 0 29.3269 0C13.8629 0 1.3269 12.536 1.3269 28C1.3269 43.464 13.8629 56 29.3269 56C44.7909 56 57.3269 43.464 57.3269 28Z" fill="#ECECEF"/>
<path id="Vector_2" d="M34.7649 19.914L31.0039 25.5C30.9429 25.5807 30.9147 25.6814 30.925 25.782C30.9352 25.8825 30.9832 25.9755 31.0592 26.0421C31.1352 26.1088 31.2337 26.1442 31.3347 26.1412C31.4358 26.1382 31.532 26.0971 31.6039 26.026L35.3039 22.826C35.3253 22.8065 35.3519 22.7936 35.3805 22.789C35.4091 22.7844 35.4384 22.7883 35.4648 22.8002C35.4913 22.8122 35.5136 22.8316 35.5291 22.8561C35.5445 22.8806 35.5525 22.9091 35.5519 22.938V32.996C35.5514 33.0263 35.5417 33.0558 35.5241 33.0805C35.5065 33.1052 35.4818 33.1239 35.4534 33.1343C35.4249 33.1447 35.3939 33.1462 35.3646 33.1387C35.3352 33.1311 35.3088 33.1149 35.2889 33.092L24.0959 19.692C23.9173 19.477 23.6937 19.3036 23.441 19.1841C23.1883 19.0645 22.9125 19.0017 22.6329 19H22.2429C21.9911 19 21.7418 19.0497 21.5092 19.1461C21.2766 19.2425 21.0653 19.3838 20.8874 19.5619C20.7094 19.7401 20.5683 19.9515 20.4722 20.1842C20.376 20.4169 20.3266 20.6663 20.3269 20.918V35.082C20.3272 35.5903 20.5291 36.0777 20.8883 36.4373C21.2475 36.7969 21.7346 36.9992 22.2429 37C22.5706 37.0001 22.8927 36.9161 23.1787 36.7561C23.4646 36.5961 23.7046 36.3654 23.8759 36.086L27.6379 30.5C27.6989 30.4194 27.7271 30.3187 27.7168 30.2181C27.7066 30.1175 27.6586 30.0246 27.5826 29.9579C27.5066 29.8913 27.4081 29.8559 27.3071 29.8589C27.206 29.8619 27.1099 29.903 27.0379 29.974L23.3369 33.174C23.3156 33.1936 23.2889 33.2065 23.2603 33.2111C23.2317 33.2157 23.2024 33.2118 23.176 33.1998C23.1496 33.1879 23.1272 33.1685 23.1118 33.144C23.0963 33.1195 23.0883 33.091 23.0889 33.062V23.014C23.0891 22.9912 23.0945 22.9687 23.1046 22.9482C23.1148 22.9278 23.1296 22.91 23.1477 22.8961C23.1658 22.8822 23.1869 22.8726 23.2093 22.8681C23.2317 22.8636 23.2548 22.8643 23.2769 22.87C23.3066 22.8779 23.3331 22.8946 23.3529 22.918L34.5449 36.318C34.7249 36.5312 34.9493 36.7024 35.2023 36.8199C35.4553 36.9373 35.7309 36.9981 36.0099 36.998H36.4099C36.6618 36.9983 36.9113 36.9489 37.1441 36.8526C37.3768 36.7562 37.5883 36.615 37.7664 36.4368C37.9444 36.2586 38.0856 36.0471 38.1818 35.8143C38.278 35.5814 38.3273 35.3319 38.3269 35.08V20.918C38.3269 20.6651 38.2769 20.4148 38.1798 20.1813C38.0826 19.9478 37.9403 19.7358 37.7609 19.5575C37.5815 19.3793 37.3687 19.2383 37.1346 19.1426C36.9005 19.0469 36.6498 18.9985 36.3969 19C36.0695 19.0003 35.7476 19.0845 35.4619 19.2445C35.1762 19.4045 34.9362 19.635 34.7649 19.914Z" fill="#232429"/>
</g>
<defs>
<clipPath id="clip0_1_1901">
<rect width="57" height="56" fill="white" transform="translate(0.659912)"/>
</clipPath>
</defs>
</svg>
