<svg width="56" height="56" viewBox="0 0 56 56" fill="none" xmlns="http://www.w3.org/2000/svg">
<g id="svg59249177_346" clip-path="url(#clip0_1_1871)">
<path id="Vector" d="M56 28C56 12.536 43.464 0 28 0C12.536 0 0 12.536 0 28C0 43.464 12.536 56 28 56C43.464 56 56 43.464 56 28Z" fill="#ECECEF"/>
<path id="Vector_2" d="M24 30C24 30 25.5 32 28 32C30.5 32 32 30 32 30M25 25H25.01M31 25H31.01M38 28C38 33.523 33.523 38 28 38C22.477 38 18 33.523 18 28C18 22.477 22.477 18 28 18C33.523 18 38 22.477 38 28Z" stroke="#232429" stroke-width="2" stroke-linecap="round" stroke-linejoin="round"/>
</g>
<defs>
<clipPath id="clip0_1_1871">
<rect width="56" height="56" fill="white"/>
</clipPath>
</defs>
</svg>
