<svg width="58" height="56" viewBox="0 0 58 56" fill="none" xmlns="http://www.w3.org/2000/svg">
<g id="svg-1647380470_363" clip-path="url(#clip0_1_1859)">
<path id="Vector" d="M57.3269 28C57.3269 12.536 44.7909 0 29.3269 0C13.8629 0 1.3269 12.536 1.3269 28C1.3269 43.464 13.8629 56 29.3269 56C44.7909 56 57.3269 43.464 57.3269 28Z" fill="#ECECEF"/>
<path id="Vector_2" d="M24.3269 38H21.3269C20.7965 38 20.2878 37.7893 19.9127 37.4142C19.5376 37.0391 19.3269 36.5304 19.3269 36V29C19.3269 28.4696 19.5376 27.9609 19.9127 27.5858C20.2878 27.2107 20.7965 27 21.3269 27H24.3269M24.3269 38V27M24.3269 38H35.6069C36.0892 38.0055 36.5573 37.8364 36.9248 37.524C37.2923 37.2116 37.5346 36.7769 37.6069 36.3L38.9869 27.3C39.0304 27.0134 39.0111 26.7207 38.9302 26.4423C38.8494 26.1638 38.709 25.9063 38.5188 25.6875C38.3285 25.4687 38.093 25.2939 37.8285 25.1752C37.564 25.0565 37.2768 24.9967 36.9869 25H31.3269V21C31.3269 20.2044 31.0108 19.4413 30.4482 18.8787C29.8856 18.3161 29.1226 18 28.3269 18L24.3269 27" stroke="#232429" stroke-width="2" stroke-linecap="round" stroke-linejoin="round"/>
</g>
<defs>
<clipPath id="clip0_1_1859">
<rect width="57" height="56" fill="white" transform="translate(0.659912)"/>
</clipPath>
</defs>
</svg>
