<svg width="56" height="56" viewBox="0 0 56 56" fill="none" xmlns="http://www.w3.org/2000/svg">
<g id="svg636220624_470" clip-path="url(#clip0_1_1833)">
<path id="Vector" d="M56 28C56 12.536 43.464 0 28 0C12.536 0 0 12.536 0 28C0 43.464 12.536 56 28 56C43.464 56 56 43.464 56 28Z" fill="#ECECEF"/>
<path id="Vector_2" d="M28 33C30.7614 33 33 30.7614 33 28C33 25.2386 30.7614 23 28 23C25.2386 23 23 25.2386 23 28C23 30.7614 25.2386 33 28 33Z" stroke="#232429" stroke-width="2"/>
<path id="Vector_3" d="M27.9999 38C26.2441 38.0007 24.5192 37.539 22.9986 36.6612C21.478 35.7835 20.2154 34.5207 19.3379 33H36.6619C35.7844 34.5207 34.5218 35.7835 33.0012 36.6612C31.4806 37.539 29.7556 38.0007 27.9999 38Z" stroke="#232429" stroke-width="2" stroke-linecap="round" stroke-linejoin="round"/>
<path id="Vector_4" d="M38 28C38 22.477 33.523 18 28 18C22.477 18 18 22.477 18 28" stroke="#232429" stroke-width="2" stroke-linecap="round"/>
</g>
<defs>
<clipPath id="clip0_1_1833">
<rect width="56" height="56" fill="white"/>
</clipPath>
</defs>
</svg>
