<svg width="56" height="56" viewBox="0 0 56 56" fill="none" xmlns="http://www.w3.org/2000/svg">
<g id="svg-223073802_654" clip-path="url(#clip0_1_1945)">
<path id="Vector" d="M56 28C56 12.536 43.464 0 28 0C12.536 0 0 12.536 0 28C0 43.464 12.536 56 28 56C43.464 56 56 43.464 56 28Z" fill="#59E692"/>
<path id="Vector_2" d="M33.438 19.914L29.677 25.5C29.616 25.5806 29.5878 25.6814 29.5981 25.7819C29.6083 25.8825 29.6563 25.9755 29.7323 26.0421C29.8083 26.1088 29.9068 26.1442 30.0078 26.1412C30.1089 26.1382 30.2051 26.097 30.277 26.026L33.978 22.826C33.9994 22.8064 34.026 22.7936 34.0546 22.789C34.0832 22.7844 34.1125 22.7883 34.1389 22.8002C34.1654 22.8121 34.1877 22.8316 34.2032 22.8561C34.2186 22.8806 34.2266 22.9091 34.226 22.938V32.996C34.2257 33.0266 34.2161 33.0563 34.1984 33.0812C34.1808 33.1061 34.156 33.1251 34.1273 33.1355C34.0986 33.1459 34.0674 33.1474 34.0378 33.1396C34.0083 33.1318 33.9818 33.1152 33.962 33.092L22.769 19.692C22.5906 19.4772 22.3674 19.3039 22.1151 19.1844C21.8627 19.0649 21.5872 19.0019 21.308 19H20.918C20.6661 18.9998 20.4165 19.0492 20.1837 19.1455C19.9509 19.2418 19.7393 19.383 19.5612 19.5612C19.383 19.7394 19.2418 19.9509 19.1455 20.1837C19.0492 20.4165 18.9997 20.6661 19 20.918V35.082C19 35.5905 19.2019 36.0782 19.5614 36.4379C19.9209 36.7976 20.4085 36.9998 20.917 37C21.2447 37.0001 21.5668 36.9161 21.8528 36.7561C22.1387 36.5961 22.3787 36.3653 22.55 36.086L26.31 30.5C26.371 30.4194 26.3992 30.3187 26.3889 30.2181C26.3787 30.1175 26.3307 30.0246 26.2547 29.9579C26.1787 29.8913 26.0802 29.8559 25.9792 29.8589C25.8781 29.8619 25.7819 29.903 25.71 29.974L22.009 33.174C21.9876 33.1936 21.961 33.2065 21.9324 33.2111C21.9038 33.2157 21.8745 33.2117 21.8481 33.1998C21.8217 33.1879 21.7993 33.1685 21.7838 33.144C21.7684 33.1195 21.7604 33.091 21.761 33.062V23.014C21.7612 22.9912 21.7666 22.9687 21.7767 22.9482C21.7869 22.9278 21.8017 22.9099 21.8198 22.896C21.8379 22.8822 21.859 22.8726 21.8814 22.8681C21.9038 22.8636 21.9269 22.8642 21.949 22.87C21.9786 22.8779 22.0052 22.8946 22.025 22.918L33.217 36.318C33.397 36.5312 33.6213 36.7025 33.8743 36.8199C34.1274 36.9374 34.403 36.9982 34.682 36.998H35.082C35.334 36.9983 35.5835 36.9489 35.8163 36.8526C36.0491 36.7563 36.2607 36.615 36.4388 36.4368C36.617 36.2587 36.7582 36.0471 36.8545 35.8143C36.9508 35.5815 37.0003 35.332 37 35.08V20.918C36.9997 20.6653 36.9496 20.4151 36.8524 20.1818C36.7552 19.9485 36.613 19.7367 36.4338 19.5585C36.2545 19.3803 36.0419 19.2392 35.8081 19.1434C35.5742 19.0476 35.3237 18.9988 35.071 19C34.7434 19.0001 34.4213 19.0842 34.1354 19.2442C33.8495 19.4042 33.6094 19.6348 33.438 19.914Z" fill="#232429"/>
</g>
<defs>
<clipPath id="clip0_1_1945">
<rect width="56" height="56" fill="white"/>
</clipPath>
</defs>
</svg>
