<svg width="56" height="56" viewBox="0 0 56 56" fill="none" xmlns="http://www.w3.org/2000/svg">
<g id="svg1427618546_304" clip-path="url(#clip0_1_1919)">
<path id="Vector" d="M56 28C56 12.536 43.464 0 28 0C12.536 0 0 12.536 0 28C0 43.464 12.536 56 28 56C43.464 56 56 43.464 56 28Z" fill="#59E692"/>
<path id="Vector_2" d="M38 18H22C20.9391 18 19.9217 18.4214 19.1716 19.1716C18.4214 19.9217 18 20.9391 18 22M18 22C18 23.0609 18.4214 24.0783 19.1716 24.8284C19.9217 25.5786 20.9391 26 22 26H38V38H21C20.2044 38 19.4413 37.6839 18.8787 37.1213C18.3161 36.5587 18 35.7956 18 35V22ZM22 22H38" stroke="#232429" stroke-width="2" stroke-linecap="round" stroke-linejoin="round"/>
</g>
<defs>
<clipPath id="clip0_1_1919">
<rect width="56" height="56" fill="white"/>
</clipPath>
</defs>
</svg>
