<svg width="56" height="56" viewBox="0 0 56 56" fill="none" xmlns="http://www.w3.org/2000/svg">
<g id="svg1042519646_393" clip-path="url(#clip0_1_1958)">
<path id="Vector" d="M56 28C56 12.536 43.464 0 28 0C12.536 0 0 12.536 0 28C0 43.464 12.536 56 28 56C43.464 56 56 43.464 56 28Z" fill="#59E692"/>
<path id="Vector_2" d="M28 31C28.9193 31 29.8295 30.8189 30.6788 30.4672C31.5281 30.1154 32.2997 29.5998 32.9497 28.9497C33.5998 28.2997 34.1154 27.5281 34.4672 26.6788C34.8189 25.8295 35 24.9193 35 24C35 23.0807 34.8189 22.1705 34.4672 21.3212C34.1154 20.4719 33.5998 19.7003 32.9497 19.0503C32.2997 18.4002 31.5281 17.8846 30.6788 17.5328C29.8295 17.1811 28.9193 17 28 17C26.1435 17 24.363 17.7375 23.0503 19.0503C21.7375 20.363 21 22.1435 21 24C21 25.8565 21.7375 27.637 23.0503 28.9497C24.363 30.2625 26.1435 31 28 31Z" stroke="#232429" stroke-width="2" stroke-linecap="round" stroke-linejoin="round"/>
<path id="Vector_3" d="M24.21 29.8899L23 38.9999L28 35.9999L33 38.9999L31.79 29.8799" stroke="#232429" stroke-width="2" stroke-linecap="round" stroke-linejoin="round"/>
</g>
<defs>
<clipPath id="clip0_1_1958">
<rect width="56" height="56" fill="white"/>
</clipPath>
</defs>
</svg>
