<svg width="56" height="56" viewBox="0 0 56 56" fill="none" xmlns="http://www.w3.org/2000/svg">
<g id="svg-509988103_677" clip-path="url(#clip0_1_1932)">
<path id="Vector" d="M56 28C56 12.536 43.464 0 28 0C12.536 0 0 12.536 0 28C0 43.464 12.536 56 28 56C43.464 56 56 43.464 56 28Z" fill="#59E692"/>
<path id="Vector_2" d="M31.25 37.875C32.12 37.875 32.9815 37.7036 33.7853 37.3707C34.5891 37.0378 35.3194 36.5498 35.9346 35.9346C36.5498 35.3194 37.0378 34.5891 37.3707 33.7853C37.7036 32.9815 37.875 32.12 37.875 31.25C37.875 30.38 37.7036 29.5185 37.3707 28.7147C37.0378 27.9109 36.5498 27.1806 35.9346 26.5654C35.3194 25.9502 34.5891 25.4622 33.7853 25.1293C32.9815 24.7964 32.12 24.625 31.25 24.625C29.4929 24.625 27.8078 25.323 26.5654 26.5654C25.323 27.8078 24.625 29.4929 24.625 31.25C24.625 33.0071 25.323 34.6922 26.5654 35.9346C27.8078 37.177 29.4929 37.875 31.25 37.875Z" stroke="#232429" stroke-width="2" stroke-linecap="round" stroke-linejoin="round"/>
<path id="Vector_3" d="M24.625 31.25V32.25C24.8902 32.25 25.1446 32.1446 25.3321 31.9571C25.5196 31.7696 25.625 31.5152 25.625 31.25H24.625ZM31.25 24.625V25.625C31.5152 25.625 31.7696 25.5196 31.9571 25.3321C32.1446 25.1446 32.25 24.8902 32.25 24.625H31.25ZM17 24.625C17 26.6473 17.8033 28.5867 19.2333 30.0167C20.6633 31.4467 22.6027 32.25 24.625 32.25V30.25C23.1332 30.25 21.7024 29.6574 20.6475 28.6025C19.5926 27.5476 19 26.1168 19 24.625H17ZM24.625 17C22.6027 17 20.6633 17.8033 19.2333 19.2333C17.8033 20.6633 17 22.6027 17 24.625H19C19 23.1332 19.5926 21.7024 20.6475 20.6475C21.7024 19.5926 23.1332 19 24.625 19V17ZM32.25 24.625C32.25 22.6027 31.4467 20.6633 30.0167 19.2333C28.5867 17.8033 26.6473 17 24.625 17V19C26.1168 19 27.5476 19.5926 28.6025 20.6475C29.6574 21.7024 30.25 23.1332 30.25 24.625H32.25ZM31.25 23.625C29.2277 23.625 27.2883 24.4283 25.8583 25.8583C24.4283 27.2883 23.625 29.2277 23.625 31.25H25.625C25.625 29.7582 26.2176 28.3274 27.2725 27.2725C28.3274 26.2176 29.7582 25.625 31.25 25.625V23.625Z" fill="#232429"/>
</g>
<defs>
<clipPath id="clip0_1_1932">
<rect width="56" height="56" fill="white"/>
</clipPath>
</defs>
</svg>
