<svg width="34" height="33" viewBox="0 0 34 33" fill="none" xmlns="http://www.w3.org/2000/svg">
<g clip-path="url(#clip0_1_1580)">
<mask id="mask0_1_1580" style="mask-type:luminance" maskUnits="userSpaceOnUse" x="1" y="0" width="33" height="33">
<path d="M1.09961 0.810303H33.0996V32.8103H1.09961V0.810303Z" fill="white"/>
</mask>
<g mask="url(#mask0_1_1580)">
<path d="M22.4326 7.47632H11.7656C9.29023 7.47632 6.91622 8.45967 5.16585 10.21C3.41548 11.9604 2.43213 14.3344 2.43213 16.8098C2.43213 19.2852 3.41548 21.6592 5.16585 23.4096C6.91622 25.16 9.29023 26.1433 11.7656 26.1433H22.4326C24.908 26.1433 27.282 25.16 29.0324 23.4096C30.7828 21.6592 31.7661 19.2852 31.7661 16.8098C31.7661 14.3344 30.7828 11.9604 29.0324 10.21C27.282 8.45967 24.908 7.47632 22.4326 7.47632Z" stroke="#232429" stroke-width="2.667" stroke-linecap="round" stroke-linejoin="round"/>
<path d="M22.4326 20.8103C23.4935 20.8103 24.5109 20.3889 25.261 19.6387C26.0112 18.8886 26.4326 17.8712 26.4326 16.8103C26.4326 15.7494 26.0112 14.732 25.261 13.9819C24.5109 13.2317 23.4935 12.8103 22.4326 12.8103C21.3718 12.8103 20.3543 13.2317 19.6042 13.9819C18.854 14.732 18.4326 15.7494 18.4326 16.8103C18.4326 17.8712 18.854 18.8886 19.6042 19.6387C20.3543 20.3889 21.3718 20.8103 22.4326 20.8103Z" stroke="#232429" stroke-width="2.667" stroke-linecap="round" stroke-linejoin="round"/>
</g>
</g>
<defs>
<clipPath id="clip0_1_1580">
<rect width="33" height="32" fill="white" transform="translate(0.432617 0.810303)"/>
</clipPath>
</defs>
</svg>
