<svg width="25" height="20" viewBox="0 0 25 20" fill="none" xmlns="http://www.w3.org/2000/svg">
<g id="svg-2090309284_479" clip-path="url(#clip0_1_1974)">
<path id="Vector" d="M1.376 20C0.459 16.91 0 13.957 0 11.138C0 7.67 0.863 4.96 2.59 3.008C4.317 1.003 6.853 0 10.2 0V4.472C8.797 4.472 7.744 4.905 7.043 5.772C6.395 6.585 6.072 7.859 6.072 9.593V11.057H10.766V20H1.376ZM15.056 20C14.138 16.91 13.679 13.957 13.679 11.138C13.679 7.669 14.543 4.959 16.269 3.008C17.996 1.003 20.532 0 23.878 0V4.472C22.475 4.472 21.423 4.905 20.721 5.772C20.074 6.585 19.75 7.859 19.75 9.593V11.057H24.444V20H15.056Z" fill="#D9DADE"/>
</g>
<defs>
<clipPath id="clip0_1_1974">
<rect width="25" height="20" fill="white"/>
</clipPath>
</defs>
</svg>
