<svg width="25" height="25" viewBox="0 0 25 25" fill="none" xmlns="http://www.w3.org/2000/svg">
<g id="SVG">
<path id="Vector" d="M23.2325 6.15039C22.4625 6.50039 21.6325 6.73039 20.7725 6.84039C21.6525 6.31039 22.3325 5.47039 22.6525 4.46039C21.8225 4.96039 20.9025 5.31039 19.9325 5.51039C19.1425 4.65039 18.0325 4.15039 16.7725 4.15039C14.4225 4.15039 12.5025 6.07039 12.5025 8.44039C12.5025 8.78039 12.5425 9.11039 12.6125 9.42039C9.0525 9.24039 5.8825 7.53039 3.7725 4.94039C3.4025 5.57039 3.1925 6.31039 3.1925 7.09039C3.1925 8.58039 3.9425 9.90039 5.1025 10.6504C4.3925 10.6504 3.7325 10.4504 3.1525 10.1504V10.1804C3.1525 12.2604 4.6325 14.0004 6.5925 14.3904C5.96323 14.5626 5.3026 14.5866 4.6625 14.4604C4.93411 15.3129 5.46604 16.0588 6.18352 16.5933C6.901 17.1278 7.76795 17.4241 8.6625 17.4404C7.14613 18.6408 5.2665 19.2897 3.3325 19.2804C2.9925 19.2804 2.6525 19.2604 2.3125 19.2204C4.2125 20.4404 6.4725 21.1504 8.8925 21.1504C16.7725 21.1504 21.1025 14.6104 21.1025 8.94039C21.1025 8.75039 21.1025 8.57039 21.0925 8.38039C21.9325 7.78039 22.6525 7.02039 23.2325 6.15039Z" fill="#232429"/>
</g>
</svg>
