<svg width="34" height="33" viewBox="0 0 34 33" fill="none" xmlns="http://www.w3.org/2000/svg">
<g clip-path="url(#clip0_1_1565)">
<mask id="mask0_1_1565" style="mask-type:luminance" maskUnits="userSpaceOnUse" x="0" y="0" width="33" height="33">
<path d="M0.435547 0.810303H32.4355V32.8103H0.435547V0.810303Z" fill="white"/>
</mask>
<g mask="url(#mask0_1_1565)">
<path d="M23.1025 28.8103V26.1433C23.1025 25.4429 22.9646 24.7493 22.6965 24.1022C22.4284 23.4551 22.0355 22.8672 21.5402 22.3719C21.0449 21.8767 20.4568 21.4839 19.8097 21.216C19.1625 20.948 18.469 20.8102 17.7685 20.8103H7.10253C5.68813 20.8103 4.33166 21.3722 3.33153 22.3723C2.3314 23.3724 1.76953 24.7289 1.76953 26.1433V28.8103M31.1025 28.8103V26.1443C31.1015 24.9626 30.7082 23.8147 29.9842 22.8808C29.2602 21.9469 28.2466 21.2798 27.1025 20.9843M21.7685 4.9843C22.9158 5.27791 23.9327 5.94504 24.659 6.88051C25.3852 7.81597 25.7793 8.96654 25.7793 10.1508C25.7793 11.3351 25.3852 12.4856 24.659 13.4211C23.9327 14.3566 22.9158 15.0237 21.7685 15.3173M12.4355 15.4773C13.8501 15.4773 15.2067 14.9154 16.2069 13.9152C17.2071 12.9149 17.769 11.5583 17.769 10.1438C17.769 8.72927 17.2071 7.37267 16.2069 6.37245C15.2067 5.37222 13.8501 4.8103 12.4355 4.8103C11.021 4.8103 9.6644 5.37222 8.66418 6.37245C7.66395 7.37267 7.10203 8.72927 7.10203 10.1438C7.10203 11.5583 7.66395 12.9149 8.66418 13.9152C9.6644 14.9154 11.021 15.4773 12.4355 15.4773Z" stroke="#232429" stroke-width="2.667" stroke-linecap="round" stroke-linejoin="round"/>
</g>
</g>
<defs>
<clipPath id="clip0_1_1565">
<rect width="33" height="32" fill="white" transform="translate(0.102539 0.810303)"/>
</clipPath>
</defs>
</svg>
